<?xml version="1.0" encoding="utf-8"?>
<!-- Generator: Adobe Illustrator 24.0.0, SVG Export Plug-In . SVG Version: 6.00 Build 0)  -->
<svg version="1.1" id="Layer_1" xmlns="http://www.w3.org/2000/svg" xmlns:xlink="http://www.w3.org/1999/xlink" x="0px" y="0px"
	 viewBox="0 0 944 944" style="enable-background:new 0 0 944 944;" xml:space="preserve">
<style type="text/css">
	.st0{fill:#FFFFFF;}
</style>
<g>
	<circle cx="472" cy="472" r="468.9"/>
	<path id="Dnezel_Logo_1_" class="st0" d="M609.4,156.1c-41.9,0-75.9,34-75.9,75.9V371c0,0,0,0,0,0c-29.6-21.1-65.9-33.6-105.1-33.6
		c-39.2,0-75.4,12.4-105.1,33.5c0,0,0,0,0,0c-46.3,32.9-76.4,87-76.4,148v0.1c0,61.1,30.1,115.1,76.4,148c0,0,0,0,0,0
		c29.6,21.1,65.9,33.6,105.1,33.6c39.2,0,75.4-12.4,105.1-33.5c0,0,0,0,0,0v33.5h0.5c41.9,0,75.9-34,75.9-75.9V519.1V519v-363H609.4
		z M533.5,520.9c-1,57.2-47.6,103.3-105.1,103.3c-58,0-105.1-47.1-105.1-105.1v-1.9c1-57.2,47.6-103.3,105.1-103.3
		c58,0,105.1,47.1,105.1,105.1V520.9z"/>
</g>
</svg>
