<svg xmlns="http://www.w3.org/2000/svg" viewBox="0 0 99.25 25.3"><defs><style>.cls-1,.cls-2{fill:#fff;}.cls-1{fill-rule:evenodd;}</style></defs><title>site_logo_white</title><g id="Layer_2" data-name="Layer 2"><g id="Layer_1-2" data-name="Layer 1"><path class="cls-1" d="M58.23,15.3a2.64,2.64,0,0,1-2.63,3H45.28A4.88,4.88,0,0,0,50,21.74a5.18,5.18,0,0,0,1.72-.3,4.28,4.28,0,0,1,4.59.93l0,0a8.43,8.43,0,1,1,1.92-7.16A.18.18,0,0,0,58.23,15.3Zm-12.89-.06h9.2a4.88,4.88,0,0,0-9.2,0Z"/><path class="cls-1" d="M92.18,15.3a2.65,2.65,0,0,1-2.64,3H79.22a4.89,4.89,0,0,0,4.67,3.43,5,5,0,0,0,1.71-.3,4.29,4.29,0,0,1,4.6.93l0,0a8.42,8.42,0,1,1,1.93-7.16A.18.18,0,0,0,92.18,15.3Zm-12.9-.06h9.21a4.88,4.88,0,0,0-9.21,0Z"/><path class="cls-2" d="M66.14,21.75h3.94a3.54,3.54,0,0,1,3.55,3.55H62.37a1.52,1.52,0,0,1-1.26-2.36l7.23-11H64.4a3.54,3.54,0,0,1-3.54-3.55H72.11a1.51,1.51,0,0,1,1.26,2.35Z"/><path class="cls-2" d="M38.18,16.86V25.3h0a3.55,3.55,0,0,1-3.55-3.55V17a5,5,0,0,0-5-5,4.87,4.87,0,0,0-4.79,4.88v4.89a3.55,3.55,0,0,1-3.55,3.55h0V16.86a8.43,8.43,0,1,1,16.86,0Z"/><path class="cls-1" d="M16.86,16.86v4.91a3.53,3.53,0,0,1-3.52,3.53h0V23.74h0a8.43,8.43,0,0,1-9.77,0A8.31,8.31,0,0,1,1,20.79,8.43,8.43,0,0,1,3.54,10a8.43,8.43,0,0,1,9.77,0h0V3.52A3.52,3.52,0,0,1,16.84,0h0Zm-3.55.08v-.08a4.89,4.89,0,0,0-9.77-.09v.09a4.89,4.89,0,0,0,9.77.08Z"/><path class="cls-2" d="M84.82,10.87h22.1a3.19,3.19,0,0,1,3.19,3.19v.36a0,0,0,0,1,0,0H88a3.19,3.19,0,0,1-3.19-3.19v-.36A0,0,0,0,1,84.82,10.87Z" transform="translate(110.12 -84.82) rotate(90)"/></g></g></svg>